<svg xmlns="http://www.w3.org/2000/svg" viewBox="0 0 64 64" role="img" aria-label="SG">
  <rect width="64" height="64" rx="10" fill="#164b4e"/>
  <path d="M17 40.5c3.4 4.2 8 6.2 13.6 6.2 8 0 13.4-4 13.4-10.1 0-5.4-3.6-8.1-10.8-9.6l-3.1-.6c-4.1-.9-5.9-2-5.9-4.1 0-2.6 2.4-4.2 6.2-4.2 3.5 0 6.5 1.3 9 3.8l3.6-4.2c-3.1-3.2-7.3-4.9-12.3-4.9-7.3 0-12.5 3.8-12.5 9.8 0 5.2 3.6 7.9 10.5 9.3l3.4.7c4.4.9 6.1 2.1 6.1 4.4 0 2.7-2.7 4.4-7.1 4.4-4.2 0-7.7-1.7-10.3-4.9L17 40.5Z" fill="#fff"/>
  <path d="m47 47-5.7-8h5.4l3.8 5.5V47H47Z" fill="#e8c8b1"/>
</svg>
